{"scene":0,"scenes":[{"nodes":[0]}],"asset":{"version":"2.0","generator":"https://github.com/mikedh/trimesh"},"accessors":[{"componentType":5125,"type":"SCALAR","bufferView":0,"count":3456,"max":[575],"min":[0]},{"componentType":5126,"type":"VEC3","byteOffset":0,"bufferView":1,"count":576,"max":[80.25,50.0,49.987762451171875],"min":[0.0,-49.9510612487793,-49.987762451171875]}],"meshes":[{"name":"7.stl","extras":{"header":"MESH-MESH-MESH-MESH-MESH-MESH-MESH-MESH-MESH-MESH-MESH-MESH-MESH-MESH-MESH-MESH","processed":true},"primitives":[{"attributes":{"POSITION":1},"indices":0,"mode":4}]}],"nodes":[{"name":"world","children":[1]},{"name":"7.stl","mesh":0}],"buffers":[{"uri":"gltf_buffer_0.bin","byteLength":13824},{"uri":"gltf_buffer_1.bin","byteLength":6912}],"bufferViews":[{"buffer":0,"byteOffset":0,"byteLength":13824},{"buffer":1,"byteOffset":0,"byteLength":6912}]}